# xmcd CD database file
#
# Track frame offsets:
#	150
#	14034
#	28015
#	44213
#	64993
#	84278
#	112492
#	131482
#	147812
#	169431
#	195083
#	215262
#	232680
#	246227
#	268703
#
# Disc length: 3841 seconds
#
# Revision: 1
# Processed by: cddbd v1.5.1PL0 Copyright (c) Steve Scherf et al.
# Submitted via: CDex 1.51
#
DISCID=dc0eff0f
DTITLE=Pete Allen - Best of Pete Allen Reeds 'n' Rhytmn
DYEAR=1998
DGENRE=Jazz
TTITLE0=Seagull Strut
TTITLE1=Beau Sejour
TTITLE2=Riverside Rag
TTITLE3=Mystic Gypsy
TTITLE4=Isle de France
TTITLE5=St Louis Street Stomp
TTITLE6=Springtime Swing
TTITLE7=Theme from the "Hiding Place"
TTITLE8=Swanee River
TTITLE9=Petite Fleur
TTITLE10=Lonesome Road
TTITLE11=Into Each Life Some Rain Must Fall
TTITLE12=Black Lion Rag
TTITLE13=Old Rugged Cross
TTITLE14=St Philip Street Breakdown
EXTD=YEAR: 1998
EXTT0=
EXTT1=
EXTT2=
EXTT3=
EXTT4=
EXTT5=
EXTT6=
EXTT7=
EXTT8=
EXTT9=
EXTT10=
EXTT11=
EXTT12=
EXTT13=
EXTT14=
PLAYORDER=
